<svg width="41" height="46" viewBox="0 0 41 46" fill="none" xmlns="http://www.w3.org/2000/svg">
<g clip-path="url(#clip0_147_96)">
<path fill-rule="evenodd" clip-rule="evenodd" d="M20.5 0.00964355L22.3916 5.92339L28.5495 5.91139L23.5607 9.55438L25.4749 15.4608L20.5 11.7985L15.5251 15.4608L17.4392 9.55438L12.4504 5.91139L18.6084 5.92339L20.5 0.00964355Z" fill="#CB9B27" stroke="#CB9B27" stroke-width="0.666415" stroke-miterlimit="2.61313"/>
<path fill-rule="evenodd" clip-rule="evenodd" d="M36.0998 11.9405C39.1359 15.544 40.969 20.2119 40.969 25.3125C40.969 36.7206 31.8047 45.9686 20.5 45.9686C9.19533 45.9686 0.0310974 36.7206 0.0310974 25.3125C0.0310974 20.2119 1.86414 15.544 4.90027 11.9405C3.30479 14.663 2.84968 14.4873 2.84968 21.2305C2.84968 27.9737 10.4971 35.0785 20.5 35.0785C30.503 35.0785 37.8876 27.9737 37.8876 21.2305C37.8876 14.4873 37.6953 14.663 36.0998 11.9405Z" fill="#CB9B27" stroke="#CB9B27" stroke-width="0.666415" stroke-miterlimit="2.61313"/>
</g>
<defs>
<clipPath id="clip0_147_96">
<rect width="41" height="46" fill="white"/>
</clipPath>
</defs>
</svg>
